<?xml version="1.0" standalone="no"?>
<!DOCTYPE svg PUBLIC "-//W3C//DTD SVG 20010904//EN"
 "http://www.w3.org/TR/2001/REC-SVG-20010904/DTD/svg10.dtd">
<svg version="1.0" xmlns="http://www.w3.org/2000/svg"
 width="250.000000pt" height="250.000000pt" viewBox="0 0 250.000000 250.000000"
 preserveAspectRatio="xMidYMid meet">
<metadata>
Created by potrace 1.14, written by Peter Selinger 2001-2017
</metadata>
<g transform="translate(0.000000,250.000000) scale(0.100000,-0.100000)"
fill="#000000" stroke="none">
<path d="M1090 2415 c-182 -31 -331 -90 -484 -192 -588 -389 -721 -1201 -287
-1745 233 -293 570 -452 947 -447 261 3 487 78 705 235 426 307 602 879 425
1382 -22 62 -108 232 -118 232 -4 0 -8 5 -8 11 0 13 -74 109 -132 170 -156
164 -391 297 -598 338 -30 6 -66 14 -80 17 -53 12 -297 11 -370 -1z"/>
</g>
</svg>
